<?xml version="1.0" encoding="utf-8"?>
<!-- Generator: Adobe Illustrator 17.1.0, SVG Export Plug-In . SVG Version: 6.00 Build 0)  -->
<!DOCTYPE svg PUBLIC "-//W3C//DTD SVG 1.1//EN" "http://www.w3.org/Graphics/SVG/1.1/DTD/svg11.dtd">
<svg version="1.1" id="Layer_1" xmlns="http://www.w3.org/2000/svg" xmlns:xlink="http://www.w3.org/1999/xlink" x="0px" y="0px"
	 width="512px" height="512px" viewBox="0 0 512 512" enable-background="new 0 0 512 512" xml:space="preserve">
<g>
	<path d="M116.4,225.6c3.2-10.6,7.2-21,12.1-31.1c10.4-21.4,24.3-40.6,41.4-57c35.6-34.2,81.6-53,129.6-53c2.1,0,4.3,0.1,6.5,0.1
		c12.9,0.4,25.6,2,38,4.5c-13.4-20.1-36.2-33.3-62.2-33.3h-184c-9.6,0-17.3,7.8-17.3,17.3v107.4H27.2c-12.4,0-22.5,10.1-22.5,22.5
		s10.1,22.5,22.5,22.5h53.3h19.3L116.4,225.6L116.4,225.6z"/>
	<path d="M475,312H355.8c-1.6,24.4-21.9,43.7-46.7,43.7c-24.8,0-45.1-19.3-46.7-43.7H143.1c5.9,4.9,23.4,9.1,24,14.2
		c0.8,6.3-22.5,16.9-21,22.9c1.5,6.1,27,4.7,29.3,10.5c2.2,5.9-17.8,21.8-14.9,27.3s27.4-2,31,3.2s-12.1,25.4-7.9,30.1
		c4.1,4.7,26.1-8.4,30.8-4.3c4.7,4.1-5.7,27.5-0.5,31.1c5.2,3.5,23.4-14.4,28.9-11.5s1,28.1,6.9,30.3c5.8,2.2,19.2-19.6,25.3-18.1
		c6,1.5,7.7,27,14,27.8c6.1,0.8,13.9-23.6,20.2-23.6s14.1,24.4,20.2,23.6c6.3-0.8,8-26.3,14-27.8c6.1-1.5,19.5,20.3,25.3,18.1
		c5.9-2.2,1.4-27.4,6.9-30.3s23.8,15,28.9,11.5c5.2-3.6-5.2-26.9-0.5-31.1c4.7-4.1,26.7,9,30.8,4.3s-11.5-24.9-7.9-30.1
		c3.5-5.2,28,2.3,31-3.2c2.9-5.5-17.2-21.4-14.9-27.3c2.2-5.8,27.8-4.4,29.3-10.5c1.5-6-21.8-16.6-21-22.9
		C451.6,321,469.1,316.9,475,312z"/>
	<path d="M502,265.2h-13.6C484.2,188.6,429.1,125.3,352,105c-14.7-3.9-30.3-6.2-46.4-6.8c-2-0.1-4-0.1-6-0.1
		c-79.2,0-145.8,54.7-168.9,127.5c-4,12.7-6.7,26-8,39.6h-19c-3.3,0-5.9,2.7-5.9,5.9v21.3c0,3.3,2.7,5.9,5.9,5.9h398.4
		c3.3,0,5.9-2.7,5.9-5.9v-21.3C507.9,267.9,505.3,265.2,502,265.2z M381,270.8h-30.3c-7.3-15.9-23.6-26.9-42.5-26.9
		c-19,0-35.3,11-42.5,26.9h-30.2c-4.6,0-8.1-4-7.7-8.5c1.4-13.5,6.1-26,13.4-36.7c14.6-21.6,39.2-35.7,67.1-35.7
		c11.6,0,22.5,2.4,32.5,6.8c26,11.5,44.9,36.2,48,65.6C389.2,266.9,385.6,270.8,381,270.8z"/>
</g>
</svg>
