<?xml version="1.0" encoding="iso-8859-1"?>
<!-- Generator: Adobe Illustrator 17.1.0, SVG Export Plug-In . SVG Version: 6.00 Build 0)  -->
<!DOCTYPE svg PUBLIC "-//W3C//DTD SVG 1.1//EN" "http://www.w3.org/Graphics/SVG/1.1/DTD/svg11.dtd">
<svg version="1.1" id="Layer_1" xmlns="http://www.w3.org/2000/svg" xmlns:xlink="http://www.w3.org/1999/xlink" x="0px" y="0px"
	 viewBox="0 0 64 64" style="enable-background:new 0 0 64 64;" xml:space="preserve">
<path d="M43.042,28h-1.083c-0.473,0-0.848,0.437-0.926,1h-3.874l-1.649-6.842c1.02-1.157,1.605-2.646,1.605-4.245
	c0-3.097-2.197-5.69-5.113-6.306V5h-3v6.693c-2.748,0.737-4.78,3.243-4.78,6.22c0,1.701,0.662,3.268,1.789,4.444L24.407,29h-4.439
	c-0.078-0.563-0.453-1-0.926-1h-1.083C17.429,28,17,28.536,17,29.198v0.104C17,29.964,17.429,31,17.958,31h1.083
	c0.361,0,0.672-0.483,0.835-1h4.289l-6.462,26.804l0.959,0.282l-0.564,1.918c-0.078,0.266,0.073,0.543,0.338,0.621
	c0.047,0.014,0.095,0.021,0.141,0.021c0.216,0,0.416-0.141,0.479-0.358l0.565-1.919l0.48,0.141l2.533-3.294L28.336,30H30v2
	c0,0.552,0.448,1,1,1s1-0.448,1-1v-2h1.228l5.701,24.217l2.533,3.294l0.48-0.141l0.565,1.919c0.064,0.218,0.263,0.358,0.479,0.358
	c0.046,0,0.094-0.007,0.141-0.021c0.265-0.078,0.417-0.355,0.338-0.621l-0.565-1.918l0.959-0.282L37.399,30h3.724
	c0.163,0.517,0.474,1,0.835,1h1.083C43.571,31,44,29.964,44,29.302v-0.104C44,28.536,43.571,28,43.042,28z M32,29v-2
	c0-0.552-0.448-1-1-1s-1,0.448-1,1v2h-1.428l2.211-9.391L32.993,29H32z M34.541,18.147l-3.759,1.107l-3.759-1.107l-0.725,3.009
	c-0.683-0.919-1.078-2.041-1.078-3.243c0-3.003,2.443-5.447,5.447-5.447s5.447,2.443,5.447,5.447c0,1.094-0.328,2.124-0.906,2.998
	L34.541,18.147z"/>
</svg>
