<?xml version="1.0" encoding="utf-8"?>
<!-- Generator: Adobe Illustrator 16.0.0, SVG Export Plug-In . SVG Version: 6.00 Build 0)  -->
<!DOCTYPE svg PUBLIC "-//W3C//DTD SVG 1.1//EN" "http://www.w3.org/Graphics/SVG/1.1/DTD/svg11.dtd">
<svg version="1.1" id="Layer_1" xmlns="http://www.w3.org/2000/svg" xmlns:xlink="http://www.w3.org/1999/xlink" x="0px" y="0px"
	 width="100px" height="100px" viewBox="0 0 100 100" enable-background="new 0 0 100 100" xml:space="preserve">
<path d="M20.529,80.158c0.084,0.022,0.169,0.033,0.254,0.033c0.262,0,0.518-0.103,0.707-0.293l0.207-0.207h5.086
	c0.276,0,0.5-0.224,0.5-0.5s-0.224-0.5-0.5-0.5h-4.086l9.922-9.922l2.121,2.121c0.195,0.195,0.451,0.293,0.707,0.293
	s0.512-0.098,0.707-0.293l31.971-31.97c0.041-0.04,0.077-0.085,0.108-0.132c0.103-0.09,0.205-0.183,0.303-0.28
	c4.045-4.045,4.045-10.627,0-14.672c-1.96-1.96-4.564-3.039-7.336-3.039s-5.376,1.079-7.336,3.039
	c-0.097,0.097-0.188,0.196-0.276,0.298c-0.048,0.033-0.093,0.071-0.135,0.113L21.482,56.219c-0.391,0.391-0.391,1.023,0,1.414
	l2.121,2.121l-6.843,6.844c-0.255,0.255-0.354,0.628-0.256,0.976L19.82,79.46C19.915,79.803,20.186,80.068,20.529,80.158z
	 M54.698,25.831c0.086-0.052,0.164-0.116,0.231-0.192l0.096-0.11c0.082-0.094,0.164-0.188,0.253-0.277
	c1.582-1.582,3.685-2.453,5.922-2.453s4.34,0.871,5.922,2.453c3.266,3.266,3.266,8.578,0,11.844
	c-0.087,0.087-0.178,0.166-0.269,0.245l-0.122,0.107c-0.07,0.063-0.13,0.137-0.178,0.217L35.447,68.77l-2.121-2.121l-7.602-7.602
	l-2.121-2.121L54.698,25.831z"/>
<path d="M34.74,65.234c0.195,0.195,0.451,0.293,0.707,0.293s0.512-0.098,0.707-0.293l20.422-20.422l0.265,0.266
	c0.188,0.188,0.441,0.293,0.707,0.293s0.52-0.105,0.707-0.293l6.836-6.836c0.188-0.188,0.293-0.442,0.293-0.707
	c0-0.266-0.105-0.52-0.293-0.707l-0.318-0.318l0.936-0.829c2.485-2.485,2.485-6.53,0-9.016c-1.203-1.203-2.805-1.866-4.51-1.866
	c-1.702,0-3.301,0.661-4.536,1.899l-0.805,0.897l-0.519-0.519c-0.391-0.391-1.023-0.391-1.414,0l-6.835,6.835
	c-0.391,0.391-0.391,1.023,0,1.414l0.471,0.471L27.139,56.219c-0.188,0.188-0.293,0.441-0.293,0.707s0.105,0.52,0.293,0.707
	L34.74,65.234z M54.632,29.198l4.221,4.221l3.755,3.755c0.001,0.001,0.002,0.001,0.003,0.002l0.359,0.359l-5.422,5.421l-8.337-8.337
	L54.632,29.198z"/>
<path d="M36.338,78.691c-0.276,0-0.5,0.224-0.5,0.5s0.224,0.5,0.5,0.5h9.555c0.276,0,0.5-0.224,0.5-0.5s-0.224-0.5-0.5-0.5H36.338z"
	/>
<path d="M55.448,78.691c-0.276,0-0.5,0.224-0.5,0.5s0.224,0.5,0.5,0.5h9.555c0.276,0,0.5-0.224,0.5-0.5s-0.224-0.5-0.5-0.5H55.448z"
	/>
<path d="M80.559,78.691h-6c-0.276,0-0.5,0.224-0.5,0.5s0.224,0.5,0.5,0.5h6c0.276,0,0.5-0.224,0.5-0.5S80.835,78.691,80.559,78.691z
	"/>
</svg>
