<?xml version="1.0" encoding="utf-8"?>
<!-- Generator: Adobe Illustrator 16.0.0, SVG Export Plug-In . SVG Version: 6.00 Build 0)  -->
<!DOCTYPE svg PUBLIC "-//W3C//DTD SVG 1.1//EN" "http://www.w3.org/Graphics/SVG/1.1/DTD/svg11.dtd">
<svg version="1.1" id="Capa_1" xmlns="http://www.w3.org/2000/svg" xmlns:xlink="http://www.w3.org/1999/xlink" x="0px" y="0px"
	 width="54.17px" height="54.09px" viewBox="0 0 54.17 54.09" enable-background="new 0 0 54.17 54.09" xml:space="preserve">
<g>
	<path id="path3340" fill="#040606" d="M8.35,11.302c0-1.375,1.115-2.489,2.489-2.489h32.354c1.373,0,2.488,1.114,2.488,2.489
		v32.353c0,1.374-1.115,2.488-2.488,2.488H10.839c-1.374,0-2.489-1.114-2.489-2.488V11.302z M0.979,6.729
		c0,0,0.208,0.209,0.466,0.467C1.704,7.454,2.832,7.958,3.437,8.86c0.364,0.542,0.529,1.18,0.529,1.864
		c0,0.758-0.248,1.46-0.713,2.033c-0.763,0.943-2.291,1.547-2.678,2.147c-0.244,0.378-0.39,0.786-0.39,1.214
		c0,0.447,0.16,0.877,0.429,1.271c0.421,0.624,1.956,1.241,2.682,2.175c0.442,0.566,0.67,1.253,0.67,1.993
		c0,0.757-0.248,1.458-0.712,2.033c-0.763,0.943-2.292,1.546-2.68,2.146c-0.244,0.379-0.39,0.787-0.39,1.215
		c0,0.45,0.16,0.876,0.428,1.271c0.422,0.623,1.957,1.241,2.683,2.175c0.441,0.566,0.671,1.254,0.671,1.994
		c0,0.758-0.249,1.463-0.715,2.034c-0.766,0.944-2.292,1.548-2.679,2.146c-0.242,0.378-0.388,0.788-0.388,1.212
		c0,0.448,0.158,0.877,0.423,1.271c0.42,0.622,1.956,1.239,2.686,2.174c0.441,0.566,0.673,1.254,0.673,1.996
		c0,0.662-0.142,1.28-0.473,1.808c-0.558,0.887-1.678,1.433-1.976,1.728l-0.538,0.539c-1.233,1.236-1.233,3.233,0,4.467l1.208,1.21
		c0.618,0.616,1.426,0.926,2.234,0.926s1.616-0.31,2.233-0.926c0,0,0.306-0.307,0.685-0.685s1.011-1.457,1.846-1.878
		c0.49-0.244,1.05-0.322,1.644-0.322c0.742,0,1.431,0.229,1.998,0.674c0.934,0.731,1.55,2.26,2.166,2.671
		c0.389,0.26,0.813,0.413,1.256,0.413c0.44,0,0.864-0.153,1.252-0.413c0.615-0.411,1.232-1.939,2.167-2.671
		c0.567-0.444,1.255-0.674,1.998-0.674c0.741,0,1.432,0.229,1.998,0.674c0.935,0.731,1.549,2.26,2.166,2.671
		c0.389,0.26,0.81,0.413,1.251,0.413c0.443,0,0.866-0.153,1.257-0.413c0.614-0.411,1.229-1.939,2.165-2.671
		c0.568-0.444,1.256-0.674,1.999-0.674c0.742,0,1.429,0.229,1.996,0.674c0.934,0.731,1.551,2.26,2.164,2.671
		c0.392,0.26,0.813,0.413,1.255,0.413s0.865-0.153,1.254-0.413c0.616-0.411,1.232-1.939,2.167-2.671
		c0.567-0.444,1.255-0.674,1.998-0.674c0.686,0,1.325,0.166,1.863,0.53c0.901,0.609,1.385,1.712,1.613,1.94l0.413,0.416
		c0.617,0.616,1.428,0.924,2.235,0.924s1.617-0.308,2.232-0.924l1.209-1.209c1.233-1.234,1.233-3.233,0-4.466
		c0,0-0.304-0.306-0.678-0.681c-0.376-0.374-1.405-1.012-1.765-1.824c-0.209-0.472-0.262-1.007-0.262-1.573
		c0-0.742,0.229-1.431,0.675-1.996c0.73-0.933,2.268-1.552,2.686-2.174c0.264-0.395,0.423-0.823,0.423-1.271
		c0-0.424-0.145-0.834-0.388-1.212c-0.387-0.598-1.915-1.201-2.679-2.146c-0.468-0.573-0.717-1.276-0.717-2.034
		c0-0.74,0.228-1.426,0.668-1.99c0.727-0.934,2.263-1.552,2.685-2.177c0.27-0.394,0.431-0.823,0.431-1.273
		c0-0.43-0.146-0.84-0.394-1.218c-0.393-0.602-1.921-1.206-2.681-2.147c-0.462-0.573-0.708-1.272-0.708-2.027
		c0-0.74,0.229-1.427,0.668-1.992c0.726-0.934,2.262-1.551,2.685-2.175c0.271-0.394,0.431-0.825,0.431-1.273
		c0-0.429-0.146-0.841-0.395-1.218c-0.392-0.601-1.92-1.206-2.68-2.148c-0.462-0.572-0.708-1.273-0.708-2.029
		c0-0.595,0.076-1.153,0.323-1.644c0.419-0.835,1.458-1.427,1.787-1.755l0.596-0.597c1.231-1.234,1.231-3.233,0-4.466l-1.209-1.21
		c-0.617-0.616-1.427-0.924-2.234-0.924s-1.618,0.308-2.235,0.924c0,0-0.2,0.2-0.447,0.448s-0.753,1.327-1.637,1.886
		c-0.526,0.331-1.146,0.474-1.806,0.474c-0.755,0-1.454-0.245-2.028-0.705c-0.94-0.76-1.548-2.297-2.153-2.697
		c-0.388-0.254-0.804-0.404-1.24-0.404c-0.436,0-0.851,0.15-1.233,0.403c-0.609,0.401-1.215,1.937-2.155,2.695
		C33.954,3.615,33.254,3.86,32.5,3.86c-0.756,0-1.455-0.245-2.028-0.708c-0.941-0.759-1.549-2.294-2.154-2.695
		c-0.386-0.253-0.801-0.403-1.238-0.403c-0.434,0-0.849,0.15-1.231,0.403c-0.606,0.401-1.215,1.937-2.155,2.695
		C23.119,3.615,22.42,3.86,21.665,3.86s-1.454-0.245-2.027-0.708c-0.941-0.758-1.548-2.294-2.155-2.695
		c-0.383-0.253-0.8-0.403-1.233-0.403c-0.436,0-0.851,0.15-1.235,0.403c-0.606,0.401-1.212,1.937-2.153,2.695
		c-0.574,0.462-1.274,0.708-2.029,0.708c-0.566,0-1.099-0.052-1.574-0.261C8.446,3.24,7.788,2.187,7.385,1.783L6.656,1.052
		C6.039,0.436,5.227,0.128,4.421,0.128c-0.809,0-1.616,0.308-2.233,0.924L0.98,2.262C-0.255,3.496-0.255,5.495,0.979,6.729"/>
</g>
</svg>
