<?xml version="1.0" encoding="iso-8859-1"?>
<!-- Generator: Adobe Illustrator 16.0.4, SVG Export Plug-In . SVG Version: 6.00 Build 0)  -->
<!DOCTYPE svg PUBLIC "-//W3C//DTD SVG 1.1//EN" "http://www.w3.org/Graphics/SVG/1.1/DTD/svg11.dtd">
<svg version="1.1" id="Capa_1" xmlns="http://www.w3.org/2000/svg" xmlns:xlink="http://www.w3.org/1999/xlink" x="0px" y="0px"
	 width="73.169px" height="57.32px" viewBox="0 0 73.169 57.32" style="enable-background:new 0 0 73.169 57.32;"
	 xml:space="preserve">
<g id="Transfer">
	<g>
		<path d="M61.462,9.432h-13.73c-2.154,0-3.903,1.752-3.903,3.91c0,2.159,1.749,3.912,3.903,3.912h13.73
			c2.151,0,3.904,1.752,3.904,3.903v24.438c0,2.158-1.753,3.911-3.904,3.911H11.707c-2.154,0-3.899-1.753-3.899-3.911V21.157
			c0-2.151,1.745-3.903,3.899-3.903h7.842v0.415l-2.509,2.112c-1.65,1.383-1.861,3.851-0.478,5.505
			c0.774,0.918,1.88,1.399,2.989,1.399c0.888,0,1.779-0.301,2.509-0.918l10.839-9.123c0.865-0.73,1.369-1.798,1.391-2.934
			c0.016-1.128-0.454-2.211-1.297-2.971L22.158,1c-1.602-1.444-4.073-1.309-5.513,0.301c-1.438,1.609-1.305,4.076,0.301,5.521
			l2.603,2.339v0.271h-7.842C5.25,9.432,0,14.696,0,21.157v24.438C0,52.062,5.25,57.32,11.707,57.32h49.755
			c6.457,0,11.707-5.258,11.707-11.726V21.157C73.169,14.696,67.919,9.432,61.462,9.432z"/>
	</g>
</g>
<g>
</g>
<g>
</g>
<g>
</g>
<g>
</g>
<g>
</g>
<g>
</g>
<g>
</g>
<g>
</g>
<g>
</g>
<g>
</g>
<g>
</g>
<g>
</g>
<g>
</g>
<g>
</g>
<g>
</g>
</svg>
