<?xml version="1.0" encoding="iso-8859-1"?>
<!-- Generator: Adobe Illustrator 18.0.0, SVG Export Plug-In . SVG Version: 6.00 Build 0)  -->
<!DOCTYPE svg PUBLIC "-//W3C//DTD SVG 1.1//EN" "http://www.w3.org/Graphics/SVG/1.1/DTD/svg11.dtd">
<svg version="1.1" id="Capa_1" xmlns="http://www.w3.org/2000/svg" xmlns:xlink="http://www.w3.org/1999/xlink" x="0px" y="0px"
	 viewBox="0 0 31 31" style="enable-background:new 0 0 31 31;" xml:space="preserve">
<g id="crop">
	<g>
		<path style="fill-rule:evenodd;clip-rule:evenodd;" d="M30,25h-4V5.477l1.691-1.77c0.394-0.394,0.394-1.034,0-1.428
			c-0.394-0.394-1.033-0.394-1.426,0L24.62,4H6V1c0-0.552-0.448-1-1-1C4.448,0,4,0.448,4,1v3H1C0.448,4,0,4.448,0,5
			c0,0.552,0.448,1,1,1h3v20c0,0.092,0.029,0.175,0.052,0.259c0.01,0.037,0.008,0.077,0.023,0.113
			c0.101,0.252,0.3,0.451,0.552,0.553c0.043,0.018,0.089,0.016,0.133,0.027C4.839,26.972,4.915,27,5,27h19v3c0,0.552,0.448,1,1,1
			c0.552,0,1-0.448,1-1v-3h4c0.552,0,1-0.448,1-1C31,25.448,30.552,25,30,25z M6,6h16.709L6,23.491V6z M24,25H7.35L24,7.57V25z"/>
	</g>
</g>
<g>
</g>
<g>
</g>
<g>
</g>
<g>
</g>
<g>
</g>
<g>
</g>
<g>
</g>
<g>
</g>
<g>
</g>
<g>
</g>
<g>
</g>
<g>
</g>
<g>
</g>
<g>
</g>
<g>
</g>
</svg>
