<?xml version="1.0" encoding="iso-8859-1"?>
<!-- Generator: Adobe Illustrator 16.0.4, SVG Export Plug-In . SVG Version: 6.00 Build 0)  -->
<!DOCTYPE svg PUBLIC "-//W3C//DTD SVG 1.1//EN" "http://www.w3.org/Graphics/SVG/1.1/DTD/svg11.dtd">
<svg version="1.1" id="Capa_1" xmlns="http://www.w3.org/2000/svg" xmlns:xlink="http://www.w3.org/1999/xlink" x="0px" y="0px"
	 width="40.814px" height="42.21px" viewBox="0 0 40.814 42.21" style="enable-background:new 0 0 40.814 42.21;"
	 xml:space="preserve">
<g id="_x33_51._Repeat">
	<g>
		<path d="M25.778,37.057c-1.835,0.741-3.837,1.153-5.938,1.153c-4.273,0-8.138-1.691-11.007-4.421l1.314-0.779
			c0.923-0.546,0.914-1.416-0.019-1.943l-6.409-3.62c-0.933-0.527-1.707-0.076-1.729,1.008l-0.152,7.537
			c-0.021,1.085,0.708,1.521,1.63,0.975l1.817-1.076c3.646,3.88,8.808,6.32,14.554,6.32c2.087,0,4.095-0.329,5.982-0.929
			C29.84,40.211,27.84,36.211,25.778,37.057z M3.984,20.053C4.859,13.574,9.619,8.339,15.84,6.734V2.612
			C8.008,4.202,1.845,10.369,0.251,18.199C-1.16,23.211,3.84,22.211,3.984,20.053z M17.606,10.189l6.511-3.898
			c0.947-0.568,0.949-1.491,0.004-2.063l-6.57-3.976c-0.945-0.571-1.708-0.14-1.703,0.965l0.035,8
			C15.887,10.321,16.659,10.757,17.606,10.189z M40.131,29.379l-3.41-2.019l2.073,1.197c0.669-1.996,1.046-4.126,1.046-6.348
			c0-6.063-2.701-11.494-6.964-15.161C30.84,5.211,27.84,7.211,29.761,9.66c3.702,2.931,6.079,7.462,6.079,12.55
			c0,1.483-0.219,2.914-0.596,4.276l-1.759-1.041c-0.917-0.543-1.647-0.096-1.631,0.998l0.116,7.517
			c0.017,1.095,0.781,1.554,1.707,1.026l6.438-3.669C41.041,30.79,41.048,29.922,40.131,29.379z"/>
	</g>
</g>
<g>
</g>
<g>
</g>
<g>
</g>
<g>
</g>
<g>
</g>
<g>
</g>
<g>
</g>
<g>
</g>
<g>
</g>
<g>
</g>
<g>
</g>
<g>
</g>
<g>
</g>
<g>
</g>
<g>
</g>
</svg>
