<?xml version="1.0" encoding="utf-8"?>
<!-- Generator: Adobe Illustrator 16.0.4, SVG Export Plug-In . SVG Version: 6.00 Build 0)  -->
<!DOCTYPE svg PUBLIC "-//W3C//DTD SVG 1.1//EN" "http://www.w3.org/Graphics/SVG/1.1/DTD/svg11.dtd">
<svg version="1.1" id="Layer_1" xmlns="http://www.w3.org/2000/svg" xmlns:xlink="http://www.w3.org/1999/xlink" x="0px" y="0px"
	 width="26px" height="26px" viewBox="0 0 26 26" enable-background="new 0 0 26 26" xml:space="preserve">
<path fill="#333333" d="M17.078,17.809c-0.408,0-0.815-0.166-1.111-0.492C15.208,16.479,14.127,16,13,16
	c-1.146,0-2.199,0.465-2.965,1.31c-0.556,0.615-1.504,0.662-2.119,0.104c-0.614-0.557-0.661-1.505-0.104-2.118
	C9.134,13.837,11.025,13,13,13c1.972,0,3.863,0.839,5.189,2.301c0.557,0.614,0.51,1.562-0.104,2.119
	C17.799,17.681,17.438,17.809,17.078,17.809z"/>
<path fill="#333333" d="M20.406,14.056c-0.383,0-0.766-0.146-1.058-0.437C17.65,11.93,15.396,11,13,11
	c-2.401,0-4.656,0.928-6.351,2.613c-0.587,0.584-1.537,0.581-2.121-0.006c-0.584-0.587-0.582-1.537,0.006-2.121
	C6.794,9.238,9.801,8,13,8c3.194,0,6.2,1.24,8.464,3.492c0.588,0.584,0.59,1.534,0.006,2.122
	C21.177,13.907,20.791,14.056,20.406,14.056z"/>
<path fill="#333333" d="M23.727,10.309c-0.373,0-0.747-0.139-1.038-0.417C20.07,7.382,16.63,6,13,6C9.363,6,5.921,7.38,3.309,9.888
	c-0.597,0.573-1.547,0.554-2.121-0.044C0.614,9.246,0.634,8.296,1.231,7.723C4.405,4.677,8.584,3,13,3
	c4.407,0,8.585,1.679,11.765,4.726c0.598,0.573,0.618,1.523,0.045,2.121C24.515,10.154,24.121,10.309,23.727,10.309z"/>
<circle fill="#333333" cx="13" cy="20" r="1.812"/>
</svg>
